<svg id="vuesax_bold_facebook" data-name="vuesax/bold/facebook" xmlns="http://www.w3.org/2000/svg" width="28" height="28" viewBox="0 0 28 28">
  <g id="facebook">
    <path id="BG_111" data-name="BG 111" d="M0,0H28V28H0Z" fill="none"/>
    <path id="Vector" d="M24,17.028C24,21.4,21.4,24,17.028,24H15.6a1.2,1.2,0,0,1-1.2-1.2V15.876a.6.6,0,0,1,.588-.6L17.1,15.24a.383.383,0,0,0,.348-.3l.42-2.292a.363.363,0,0,0-.36-.42l-2.556.036a.61.61,0,0,1-.612-.588l-.048-2.94a.361.361,0,0,1,.36-.36l2.88-.048a.354.354,0,0,0,.36-.36l-.048-2.88a.354.354,0,0,0-.36-.36l-3.24.048a3.6,3.6,0,0,0-3.54,3.66l.06,3.3a.594.594,0,0,1-.588.612l-1.44.024a.354.354,0,0,0-.36.36l.036,2.28a.354.354,0,0,0,.36.36l1.44-.024a.61.61,0,0,1,.612.588l.108,6.84A1.2,1.2,0,0,1,9.732,24H6.972C2.6,24,0,21.4,0,17.016V6.972C0,2.6,2.6,0,6.972,0H17.028C21.4,0,24,2.6,24,6.972V17.028Z" transform="translate(2 2)" fill="#fff"/>
    <path id="Vector-2" data-name="Vector" d="M0,0H28V28H0Z" fill="#fff" opacity="0"/>
  </g>
</svg>
