<svg xmlns="http://www.w3.org/2000/svg" width="28" height="28" viewBox="0 0 28 28">
  <g id="vuesax_bold_instagram" data-name="vuesax/bold/instagram" transform="translate(-300 -444)">
    <g id="instagram" transform="translate(300 444)">
      <path id="Vector" d="M17.029,0H6.973C2.6,0,0,2.6,0,6.972V17.016C0,21.4,2.6,24,6.973,24H17.017c4.368,0,6.973-2.6,6.973-6.972V6.972C24,2.6,21.4,0,17.029,0ZM12,16.656A4.656,4.656,0,1,1,16.657,12,4.661,4.661,0,0,1,12,16.656Zm7.1-10.8a1.386,1.386,0,0,1-.252.4,1.386,1.386,0,0,1-.4.252,1.188,1.188,0,0,1-1.308-.252,1.386,1.386,0,0,1-.252-.4,1.131,1.131,0,0,1,0-.912,1.239,1.239,0,0,1,.252-.4,1.2,1.2,0,0,1,1.08-.324.724.724,0,0,1,.228.072.909.909,0,0,1,.216.108,1.891,1.891,0,0,1,.18.144,1.239,1.239,0,0,1,.252.4,1.131,1.131,0,0,1,0,.912Z" transform="translate(2 2)" fill="#fff"/>
      <path id="Vector-2" data-name="Vector" d="M0,0H28V28H0Z" transform="translate(28 28) rotate(180)" fill="none" opacity="0"/>
    </g>
  </g>
</svg>
